<?xml version="1.0" standalone="no"?>
<!DOCTYPE svg PUBLIC "-//W3C//DTD SVG 20010904//EN"
 "http://www.w3.org/TR/2001/REC-SVG-20010904/DTD/svg10.dtd">
<svg version="1.0" xmlns="http://www.w3.org/2000/svg"
 width="960.000000pt" height="960.000000pt" viewBox="0 0 960.000000 960.000000"
 preserveAspectRatio="xMidYMid meet">
<metadata>
Created by potrace 1.11, written by Peter Selinger 2001-2013
</metadata>
<g transform="translate(0.000000,960.000000) scale(0.100000,-0.100000)"
fill="#000000" stroke="none">
<path d="M4121 8101 c-26 -7 -25 9 -32 -334 l-1 -67 -145 -113 c-80 -61 -150
-117 -157 -122 -6 -6 -29 -24 -51 -40 -22 -17 -53 -42 -70 -57 -16 -16 -33
-28 -37 -28 -4 0 -13 -6 -20 -13 -40 -39 -202 -157 -216 -157 -15 0 -17 -21
-16 -207 1 -115 0 -215 -2 -223 -3 -12 -22 -15 -99 -13 l-95 1 -1 -26 c0 -15
0 -618 -1 -1339 0 -1211 -1 -1313 -17 -1314 -9 -1 -69 -2 -134 -3 l-117 -1 0
60 c-1 33 -1 504 -1 1048 l-1 987 -156 -107 c-86 -58 -184 -125 -217 -147 -33
-23 -61 -44 -63 -48 -2 -5 -10 -8 -18 -8 -8 0 -14 -3 -14 -8 0 -4 -9 -12 -20
-17 -25 -13 -281 -186 -298 -202 -7 -7 -17 -13 -21 -13 -4 0 -18 -8 -29 -19
l-22 -18 -2 -1084 -3 -1084 -235 0 -235 0 0 945 0 945 -122 0 c-67 1 -124 3
-126 5 -3 3 -31 55 -62 115 -81 153 -69 142 -148 141 -80 -1 -112 8 -103 29 3
8 1 27 -4 41 -6 14 -12 39 -15 57 -3 18 -10 49 -16 70 l-10 37 -166 -2 -166
-3 -7 -25 c-4 -14 -13 -50 -20 -80 -6 -30 -16 -71 -21 -90 l-9 -35 -81 0 -81
0 -44 -80 c-24 -44 -54 -101 -66 -127 -11 -27 -28 -49 -37 -49 -9 -1 -65 -2
-126 -3 l-110 -1 0 -1890 0 -1890 4758 0 c2616 -1 4757 2 4758 5 0 3 2 313 3
690 1 451 -2 690 -9 699 -6 9 -11 113 -11 265 -1 138 -2 253 -3 256 0 3 -139
5 -308 5 -170 -1 -313 1 -320 3 -10 3 -12 197 -12 870 0 477 -1 908 -1 958 l0
92 -680 -1 c-559 0 -682 -2 -691 -13 -6 -8 -8 -14 -3 -14 5 0 9 -74 9 -165 0
-91 -2 -165 -5 -165 -3 0 -6 -9 -6 -20 0 -11 3 -20 6 -20 8 0 5 -333 -3 -347
-4 -6 -4 -14 1 -17 9 -6 7 -90 -3 -106 -3 -5 -3 -10 2 -10 6 0 9 -152 4 -192
-1 -8 -54 -10 -153 -7 -10 0 -18 6 -19 12 0 7 0 486 0 1065 -1 974 -2 1052
-17 1053 -10 1 -56 2 -103 3 -70 1 -89 5 -105 20 -10 11 -18 22 -17 25 1 3
-16 38 -37 78 -22 40 -40 76 -40 81 0 5 -7 15 -15 22 -9 7 -13 15 -11 18 3 3
-3 17 -14 32 -11 16 -20 32 -20 38 0 24 -35 36 -108 37 l-76 0 -18 70 c-9 39
-20 84 -22 101 -11 63 -2 60 -181 60 l-165 0 -9 -35 c-5 -20 -14 -56 -20 -81
-7 -25 -14 -56 -17 -70 -2 -14 -6 -30 -8 -36 -2 -6 -36 -10 -84 -9 l-81 0 -22
-40 c-12 -22 -40 -76 -63 -120 -22 -44 -43 -82 -46 -85 -3 -3 -17 -27 -31 -55
l-26 -50 -89 -2 c-49 0 -97 -2 -106 -2 -15 -1 -17 -14 -16 -123 l2 -123 -40
-1 c-23 0 -45 -3 -50 -6 -5 -3 -18 -3 -29 -1 -11 2 -36 4 -55 3 -19 -1 -42 -2
-50 -1 -17 1 -18 1 -145 -2 l-90 -2 -1 -660 c-1 -363 -2 -666 -3 -672 -1 -10
-33 -13 -123 -13 l-123 0 1 969 1 968 -95 0 c-60 0 -96 4 -101 11 -4 7 -4 37
-1 67 3 30 4 55 1 55 -8 0 -6 94 2 107 4 6 4 13 0 17 -8 7 -6 143 2 156 4 6
-8 18 -25 28 -35 19 -241 175 -276 210 -7 6 -17 12 -22 12 -6 0 -12 4 -14 8
-1 5 -34 33 -73 62 -38 30 -72 57 -75 60 -3 3 -26 21 -52 40 -27 18 -48 36
-48 40 0 3 -14 14 -30 24 -17 9 -42 28 -56 41 -14 13 -30 25 -36 27 -5 2 -11
65 -13 148 -2 80 -4 145 -5 145 -5 0 -4 57 1 60 7 5 0 54 -10 59 -3 1 -17 0
-30 -3z"/>
</g>
</svg>
